<?xml version="1.0" encoding="UTF-8" standalone="no"?>
<!-- Created with Inkscape (http://www.inkscape.org/) -->

<svg
   version="1.1"
   id="svg2"
   width="439.56"
   height="93.800003"
   viewBox="0 0 439.56 93.800003"
   sodipodi:docname="Parker Software Logo - Print copy.eps"
   xmlns:inkscape="http://www.inkscape.org/namespaces/inkscape"
   xmlns:sodipodi="http://sodipodi.sourceforge.net/DTD/sodipodi-0.dtd"
   xmlns="http://www.w3.org/2000/svg"
   xmlns:svg="http://www.w3.org/2000/svg">
  <defs
     id="defs6" />
  <sodipodi:namedview
     id="namedview4"
     pagecolor="#ffffff"
     bordercolor="#000000"
     borderopacity="0.25"
     inkscape:showpageshadow="2"
     inkscape:pageopacity="0.0"
     inkscape:pagecheckerboard="0"
     inkscape:deskcolor="#d1d1d1" />
  <g
     id="g8"
     inkscape:groupmode="layer"
     inkscape:label="ink_ext_XXXXXX"
     transform="matrix(1.3333333,0,0,-1.3333333,0,93.8)">
    <g
       id="g10"
       transform="scale(0.1)">
      <path
         d="m 1411.74,286.938 h 76.34 l 14.25,162.835 h 19.48 c 11.82,0.11 20.82,-2.058 26.94,-6.394 6.22,-4.231 10.1,-11.172 11.88,-20.734 1.78,-9.567 1.84,-22.188 0.41,-37.782 -0.45,-5.14 -1.17,-11.086 -2.12,-17.937 -0.87,-6.942 -1.74,-14.793 -2.63,-23.727 -0.89,-10.281 -1.21,-20.019 -0.84,-29.39 0.13,-4.207 0.41,-8.348 0.82,-12.407 0.87,-8.476 7.59,-14.464 16.2,-14.464 h 97.38 c -5.74,5.14 -10.02,11.191 -12.55,18.218 -2.54,6.942 -3.91,14.965 -4.3,23.879 -0.3,9.024 -0.15,18.934 0.61,29.953 0.78,10.996 1.67,23.075 2.47,36.153 0.76,11.91 1.04,22.535 1.07,32.101 0.02,9.477 -1.11,17.934 -3.26,25.504 -2.21,7.59 -6.14,14.359 -11.73,20.301 -5.73,5.941 -13.82,11.363 -24.38,16.242 18.11,10.176 31.97,23.25 41.58,39.215 9.58,15.965 15.35,35.527 17.3,58.711 1.76,18.933 0.37,35.351 -4.07,49.406 -4.36,13.969 -12.06,25.875 -23.12,35.527 -7.57,6.395 -16.62,11.168 -27.26,14.247 -10.72,3.144 -23.08,5.14 -37.24,6.14 -14.25,0.887 -30.26,1.344 -48.3,1.258 H 1429.52 L 1395.5,304.742 c -0.85,-9.801 6.44,-17.804 16.24,-17.804 m 97.12,237.511 8.68,99.008 c 2.17,0 4.23,0.086 6.13,0.258 2,0.195 3.91,0.285 5.82,0.285 12.88,0.086 23.2,-1.434 30.95,-4.687 7.65,-3.165 12.99,-8.305 16.07,-15.333 2.97,-7.136 3.97,-16.503 2.86,-28.128 -1,-12.539 -3.69,-22.645 -7.98,-30.301 -4.36,-7.676 -10.61,-13.164 -18.85,-16.59 -8.33,-3.43 -18.95,-5.141 -31.84,-5.055 -1.88,0 -3.77,0.086 -5.72,0.258 -1.89,0.199 -3.95,0.285 -6.12,0.285"
         style="fill:#2f2d2e;fill-opacity:1;fill-rule:nonzero;stroke:none"
         id="path12" />
      <path
         d="m 899.859,286.938 h 77.407 l 9.476,108.203 23.968,38.953 33.85,-135.055 c 1.87,-7.375 8.05,-12.101 15.79,-12.101 h 87.34 l -70.31,228.859 103.76,177.996 h -97.39 l -85.664,-168.801 13.234,150.992 c 0.86,9.825 -6.45,17.809 -16.25,17.809 H 917.645 L 883.613,304.742 c -0.867,-9.801 6.442,-17.804 16.246,-17.804"
         style="fill:#2f2d2e;fill-opacity:1;fill-rule:nonzero;stroke:none"
         id="path14" />
      <path
         d="m 618.098,286.938 h 76.324 l 14.269,162.835 h 19.454 c 11.843,0.11 20.843,-2.058 26.937,-6.394 6.227,-4.231 10.129,-11.172 11.906,-20.734 1.782,-9.567 1.848,-22.188 0.395,-37.782 -0.457,-5.14 -1.153,-11.086 -2.106,-17.937 -0.89,-6.942 -1.757,-14.793 -2.601,-23.727 -0.914,-10.281 -1.238,-20.019 -0.867,-29.39 0.129,-4.207 0.386,-8.348 0.824,-12.407 0.867,-8.476 7.59,-14.464 16.199,-14.464 h 97.383 c -5.75,5.14 -10.024,11.191 -12.559,18.218 -2.539,6.942 -3.902,14.965 -4.316,23.879 -0.305,9.024 -0.152,18.934 0.629,29.953 0.781,10.996 1.648,23.075 2.472,36.153 0.758,11.91 1.039,22.535 1.063,32.101 0.023,9.477 -1.106,17.934 -3.254,25.504 -2.211,7.59 -6.137,14.359 -11.754,20.301 -5.703,5.941 -13.793,11.363 -24.355,16.242 18.109,10.176 31.968,23.25 41.554,39.215 9.61,15.965 15.375,35.527 17.328,58.711 1.735,18.933 0.368,35.351 -4.078,49.406 -4.359,13.969 -12.058,25.875 -23.121,35.527 -7.566,6.395 -16.609,11.168 -27.238,14.247 -10.734,3.144 -23.078,5.14 -37.262,6.14 -14.25,0.887 -30.254,1.344 -48.301,1.258 H 635.883 L 601.855,304.742 c -0.847,-9.801 6.442,-17.804 16.243,-17.804 m 97.101,237.511 8.676,99.008 c 2.145,0 4.25,0.086 6.156,0.258 1.996,0.195 3.907,0.285 5.793,0.285 12.906,0.086 23.227,-1.434 30.973,-4.687 7.652,-3.165 12.988,-8.305 16.07,-15.333 2.973,-7.136 3.946,-16.503 2.84,-28.128 -0.996,-12.539 -3.664,-22.645 -7.957,-30.301 -4.383,-7.676 -10.629,-13.164 -18.848,-16.59 -8.332,-3.43 -18.933,-5.141 -31.839,-5.055 -1.887,0 -3.754,0.086 -5.727,0.258 -1.887,0.199 -3.969,0.285 -6.137,0.285"
         style="fill:#2f2d2e;fill-opacity:1;fill-rule:nonzero;stroke:none"
         id="path16" />
      <path
         d="m 97.9375,286.938 h 77.9495 l 13.64,155.808 h 33.551 c 42.293,0.09 75.129,10.824 98.555,32.188 23.441,21.382 37,52.679 40.664,93.867 2.125,25.265 0.152,46.89 -6.137,64.742 -6.293,17.871 -16.461,31.488 -30.601,40.773 -9.047,5.856 -19.305,10.172 -30.887,12.969 -11.559,2.797 -24.484,4.598 -38.649,5.422 -14.164,0.805 -29.757,1.172 -46.695,1.086 H 115.723 L 81.6914,304.742 c -0.8672,-9.801 6.4414,-17.804 16.2461,-17.804 m 98.2035,231.546 8.914,101.719 h 8.09 c 13.554,0.086 24.402,-1.43 32.816,-4.402 8.394,-3.082 14.269,-7.938 17.828,-14.707 3.578,-6.766 4.75,-15.68 3.774,-26.871 -1.54,-19.649 -7.028,-33.899 -16.375,-42.922 -9.348,-9.02 -23.622,-13.446 -42.641,-13.36 -1.887,0 -3.883,0 -6.051,0.11 -2.058,0 -4.207,0.172 -6.355,0.433"
         style="fill:#2f2d2e;fill-opacity:1;fill-rule:nonzero;stroke:none"
         id="path18" />
      <path
         d="m 1476.91,523.785 h -199.99 l -4.9,-56.347 c -0.87,-9.801 6.44,-17.786 16.22,-17.786 h 182.19 l 6.48,74.133"
         style="fill:#2f2d2e;fill-opacity:1;fill-rule:nonzero;stroke:none"
         id="path20" />
      <path
         d="m 3244.92,379.609 c -1.69,-12.015 -4.53,-22.468 -8.65,-31.449 -5.01,-10.82 -11.34,-19.129 -19.13,-24.875 -7.83,-5.769 -16.55,-8.676 -26.4,-8.738 -13.07,0 -23.35,3.945 -30.77,11.969 -7.42,8.027 -12.3,20.105 -14.68,36.265 -2.28,16.223 -2.39,36.5 -0.18,61.032 l 1.19,13.531 h 135.84 c 5.79,0 10.97,4.687 11.58,10.5 0.11,0.976 0.2,1.972 0.3,2.926 0.44,4.425 0.85,8.761 1.22,13.078 4.08,45.437 -0.52,79.445 -13.88,101.98 -13.38,22.535 -36,33.832 -67.82,33.832 -22.64,0 -41.64,-5.965 -56.93,-17.871 -15.38,-11.906 -27.44,-30.035 -36.31,-54.285 -8.81,-24.246 -14.81,-54.805 -17.96,-91.785 -4.7,-52.942 -0.5,-92.328 12.84,-118.203 13.25,-25.895 36.37,-38.778 69.21,-38.692 29.93,0.086 53.68,9.653 71.38,28.5 17.69,18.848 28.32,46.348 31.92,82.414 h -31.23 c -5.68,0 -10.76,-4.445 -11.54,-10.129 m -95.58,92.352 c 2.65,31.121 9.09,54.285 19.35,69.617 10.17,15.336 24.55,22.992 42.85,22.906 16.23,0 27.87,-7.027 34.94,-21.105 7.05,-14.074 9.37,-35.156 6.92,-63.309 l -0.73,-8.109 h -103.33"
         style="fill:#f03a2a;fill-opacity:1;fill-rule:nonzero;stroke:none"
         id="path22" />
      <path
         d="m 2977.63,286.938 h 31.53 l 16.27,186.109 c 1.65,17.676 5.75,32.641 12.41,44.894 6.65,12.192 15.4,21.473 26.24,27.786 10.93,6.394 23.47,9.562 37.8,9.562 1.67,0 3.32,-0.086 4.95,-0.262 3.1,-0.324 5.98,0.586 8.52,2.692 2.5,2.082 3.95,4.793 4.21,7.937 l 2.75,31.297 c -6.03,1.02 -12.12,1.082 -18.3,1.082 -10.54,0 -20.5,-2.254 -30,-6.68 -9.48,-4.421 -18.06,-10.82 -25.83,-19.3 -7.7,-8.481 -14.18,-18.762 -19.5,-30.821 l 3.45,39.082 c 0.5,5.879 -3.88,10.672 -9.76,10.672 h -28.82 l -25.66,-293.355 c -0.52,-5.903 3.86,-10.695 9.74,-10.695"
         style="fill:#f03a2a;fill-opacity:1;fill-rule:nonzero;stroke:none"
         id="path24" />
      <path
         d="m 2936.5,339.961 15.57,177.977 c 2.56,28.238 -2.3,48.972 -14.66,62.136 -12.47,13.164 -32.93,19.758 -61.51,19.586 -20.45,0.086 -37.59,-3.058 -51.29,-9.305 -13.65,-6.312 -24.23,-15.941 -31.8,-29.214 -6.09,-10.625 -10.45,-23.684 -13.03,-39.254 -0.5,-3.082 0.21,-5.817 2.12,-8.09 1.89,-2.258 4.45,-3.43 7.53,-3.43 h 28.89 l 0.47,5.422 c 1.46,16.508 6.18,28.586 14.27,36.438 8.09,7.918 19.72,11.8 34.84,11.711 15.16,0.089 26.2,-2.625 33.09,-8.286 6.9,-5.679 9.78,-14.789 8.7,-27.414 l -2.47,-28.148 c -0.44,-5.207 -1.54,-9.543 -3.58,-12.973 -1.91,-3.426 -4.77,-6.398 -8.7,-8.847 -3.92,-2.516 -9.09,-4.86 -15.31,-7.114 -6.33,-2.343 -14.08,-4.945 -23.23,-7.851 -15.85,-4.946 -29.67,-10.086 -41.47,-15.399 -11.82,-5.25 -21.73,-11.453 -29.77,-18.586 -8.09,-7.031 -14.38,-15.879 -19,-26.418 -4.52,-10.562 -7.46,-23.64 -8.83,-39.125 -1.48,-17.961 0,-33.097 4.38,-45.718 4.42,-12.539 11.52,-22.102 21.32,-28.696 9.87,-6.66 22.01,-9.914 36.72,-10 16.87,0.086 31.84,4.164 44.83,12.34 12.95,8.137 23.38,20.02 31.34,35.809 -5.86,-33.637 32.88,-1.106 40.58,12.449 m -32.49,110.918 -5.25,-60.059 c -1.48,-15.613 -5.08,-28.867 -10.89,-39.863 -5.85,-11.082 -13.34,-19.562 -22.51,-25.418 -9.26,-5.879 -19.54,-8.738 -30.99,-8.848 -12.26,0.11 -21.35,4.231 -27.22,12.45 -5.95,8.199 -8.27,19.91 -7.03,35.156 0.89,10.105 2.62,18.5 5.1,25.156 2.47,6.684 5.94,12.277 10.19,16.594 4.25,4.445 9.54,8.109 15.85,11.191 6.23,3.059 13.49,5.942 21.87,8.739 7.24,2.453 14.05,4.882 20.19,7.222 6.25,2.258 11.97,4.774 17.09,7.571 5.1,2.796 9.63,6.226 13.6,10.109"
         style="fill:#f03a2a;fill-opacity:1;fill-rule:nonzero;stroke:none"
         id="path26" />
      <path
         d="m 2502.09,286.938 h 36.07 l 67.19,235.882 31.23,-227.554 c 0.65,-4.922 4.62,-8.328 9.68,-8.328 h 33.66 l 95.84,290.863 c 1.08,3.297 0.67,6.441 -1.2,9.109 -1.86,2.668 -4.64,4.078 -8.04,4.078 h -28.63 l -73.76,-243.453 -30.11,235.039 c -0.63,4.965 -4.62,8.414 -9.69,8.414 h -34.66 l -68.32,-242.91 -33.83,234.649 c -0.7,4.902 -4.67,8.261 -9.68,8.261 h -35.33 l 49.95,-296.023 c 0.81,-4.793 4.69,-8.027 9.63,-8.027"
         style="fill:#f03a2a;fill-opacity:1;fill-rule:nonzero;stroke:none"
         id="path28" />
      <path
         d="m 2378.25,349.695 18.05,206.125 h 61.68 l 3.06,35.18 h -61.66 l 8.15,93.367 c 0.52,5.879 -3.86,10.672 -9.76,10.672 h -30.95 L 2357.71,591 h -109.57 l -3.08,-35.18 h 109.57 l -19.84,-226.687 c -1.41,-16.223 2.41,-28.305 11.6,-36.242 9.15,-7.938 23.68,-11.907 43.7,-11.907 3.24,0 7.57,0.086 12.84,0.368 5.34,0.175 11.58,0.457 18.63,0.718 l 3.26,37.325 c -1.89,-0.258 -3.71,-0.454 -5.36,-0.454 -1.63,-0.089 -3.06,-0.089 -4.42,-0.089 -10.37,-0.086 -18.33,0.457 -23.99,1.886 -5.66,1.367 -9.48,4.254 -11.32,8.657 -1.87,4.511 -2.37,11.191 -1.48,20.3"
         style="fill:#f03a2a;fill-opacity:1;fill-rule:nonzero;stroke:none"
         id="path30" />
      <path
         d="m 2210.48,286.938 h 33.14 l 23.58,269.437 h 45.98 l 3.04,34.613 h -45.98 l 3.44,39.496 c 0.79,9.911 3.56,16.961 8.44,21.016 4.86,4.141 12.43,6.223 22.62,6.027 2.02,0 4.04,-0.043 5.99,-0.148 3.04,-0.176 5.81,0.801 8.2,2.883 2.4,2.105 3.77,4.726 4.05,7.785 l 1.43,16.746 c 0.48,5.398 -3.1,9.91 -8.39,10.582 -2.8,0.367 -5.62,0.563 -8.46,0.586 -24.81,0.066 -43.44,-4.969 -55.98,-15.246 -12.55,-10.367 -19.73,-26.504 -21.58,-48.606 l -3.6,-41.121 h -42.72 l -2.11,-23.941 c -0.49,-5.879 3.86,-10.672 9.74,-10.672 h 32.08 l -22.64,-258.742 c -0.52,-5.903 3.88,-10.695 9.73,-10.695"
         style="fill:#f03a2a;fill-opacity:1;fill-rule:nonzero;stroke:none"
         id="path32" />
      <path
         d="m 2018.06,438.969 c 2.34,27.761 6.05,50.769 11.28,68.969 5.29,18.304 12.69,31.925 22.51,40.949 9.72,9.019 22.36,13.422 38.13,13.422 15.44,0.089 27.22,-4.317 35.38,-13.25 8.13,-8.829 13.38,-22.36 15.57,-40.579 2.19,-18.199 1.97,-41.382 -0.59,-69.511 -2.38,-28.219 -6.31,-51.574 -11.71,-69.879 -5.47,-18.309 -13.08,-31.93 -22.75,-40.777 -9.8,-8.915 -22.27,-13.336 -37.52,-13.231 -15.6,-0.105 -27.48,4.316 -35.61,13.231 -8.16,8.847 -13.28,22.468 -15.38,40.777 -2.11,18.305 -1.87,41.66 0.69,69.879 m -45.46,0 c -3.25,-36.524 -2.21,-66.629 3.13,-90.356 5.4,-23.617 15.42,-41.207 30.19,-52.66 14.68,-11.449 34.46,-17.219 59.27,-17.133 24.79,0 45.68,5.684 62.46,17.219 16.79,11.539 30.06,29.129 39.61,52.856 9.54,23.621 15.98,53.722 19.06,90.074 3.26,36.242 2.11,66.191 -3.38,89.984 -5.49,23.813 -15.68,41.488 -30.54,53.203 -14.73,11.731 -34.42,17.5 -59.14,17.5 -36.44,0 -64.46,-13.25 -84.2,-39.949 -19.73,-26.699 -31.84,-66.91 -36.46,-120.738"
         style="fill:#f03a2a;fill-opacity:1;fill-rule:nonzero;stroke:none"
         id="path34" />
      <path
         d="m 1720.27,416.242 c -0.2,-2.168 -0.46,-4.426 -0.85,-6.765 -0.41,-2.344 -0.67,-4.598 -0.86,-6.766 -3.52,-41.188 3.4,-72.313 20.77,-93.328 17.46,-21.016 45.12,-31.555 82.98,-31.645 25.53,0.09 47.76,4.969 66.74,14.512 18.95,9.563 34.07,23.445 45.31,41.664 11.23,18.219 18.02,40.231 20.38,66.082 1.61,18.328 0.57,34.289 -3.23,47.824 -3.86,13.512 -10.41,25.051 -19.89,34.422 -4.29,4.25 -10.6,8.481 -18.71,12.535 -8.14,4.164 -18.03,8.481 -29.52,12.993 -11.54,4.507 -24.6,9.562 -39.08,15.05 -10.57,3.969 -19.78,8.024 -27.64,12.102 -7.76,4.055 -14.09,8.828 -18.95,14.226 -4.92,5.422 -8.31,12.082 -10.32,20.02 -1.94,7.937 -2.43,17.762 -1.41,29.41 1.21,13.598 4.94,25.332 10.93,35.156 6.09,9.825 14.31,17.414 24.72,22.731 10.28,5.398 22.6,8.023 36.68,8.109 20.47,-0.086 35.7,-6.222 45.82,-18.476 13.02,-15.68 13.71,-36.957 11.93,-57.258 h 32.47 c 2.99,0 5.66,1.086 7.94,3.23 2.28,2.168 3.53,4.774 3.69,7.766 1.08,19.281 0.1,37.953 -8.07,55.457 -7.25,15.527 -18.52,27.414 -33.86,35.699 -15.22,8.285 -33.88,12.449 -55.98,12.535 -23.53,-0.086 -44.05,-4.683 -61.5,-13.707 -17.49,-9.023 -31.32,-21.906 -41.65,-38.777 -10.3,-16.852 -16.59,-37.047 -18.71,-60.578 -1.59,-18.152 -0.03,-34.094 4.64,-47.973 4.53,-13.988 12.14,-25.898 22.64,-35.894 4.16,-3.883 10.22,-7.657 18.13,-11.368 7.87,-3.597 17.27,-7.566 28.35,-11.71 11.08,-4.165 23.57,-8.848 37.35,-14.27 10.65,-4.035 19.75,-8.199 27.5,-12.254 7.67,-4.144 14.03,-8.828 18.8,-14.141 4.84,-5.421 8.24,-11.91 10.15,-19.757 1.95,-7.852 2.37,-17.485 1.35,-29.043 -1.39,-15.961 -5.56,-29.563 -12.24,-40.926 -6.76,-11.363 -15.72,-20.106 -27,-26.156 -11.25,-6.051 -24.33,-9.11 -39.38,-9.196 -25.16,0 -43.47,7.133 -54.85,21.192 -11.5,14.16 -15.99,34.98 -13.56,62.676 l 0.35,3.925 c 0.52,5.879 -3.86,10.672 -9.74,10.672 h -32.62"
         style="fill:#f03a2a;fill-opacity:1;fill-rule:nonzero;stroke:none"
         id="path36" />
      <path
         d="m 2939.95,377.051 h -39.99 l -6.94,-79.555 c -0.52,-5.879 3.86,-10.672 9.71,-10.672 h 29.33 l 7.89,90.227"
         style="fill:#f03a2a;fill-opacity:1;fill-rule:nonzero;stroke:none"
         id="path38" />
      <path
         d="m 1143.96,286.938 h 221.27 l 5.68,64.98 c 0.87,9.801 -6.42,17.781 -16.23,17.781 h -108.81 c 16.05,183.531 6.64,75.934 21.43,245.102 h 126.6 l 5.35,61.183 c 0.85,9.825 -6.42,17.809 -16.24,17.809 h -203.46 l -35.59,-406.855"
         style="fill:#2f2d2e;fill-opacity:1;fill-rule:nonzero;stroke:none"
         id="path40" />
      <path
         d="m 320.836,286.938 h 73.676 l 78.859,330.078 18.715,-314.875 c 0.5,-8.782 7.355,-15.203 16.266,-15.203 h 91.222 c -9.457,7.656 -14.984,21.234 -16.59,40.687 l -45.046,352.113 c -1.063,8.285 -7.7,14.055 -16.161,14.055 H 423.074 L 305.328,308.52 c -1.648,-5.422 -0.89,-10.606 2.235,-14.946 3.101,-4.336 7.699,-6.636 13.273,-6.636"
         style="fill:#2f2d2e;fill-opacity:1;fill-rule:nonzero;stroke:none"
         id="path42" />
      <path
         d="m 0,693.785 v -5.879 h 10.2813 v -28.801 h 6.9843 v 28.801 h 10.3008 v 5.879 H 0"
         style="fill:#2f2d2e;fill-opacity:1;fill-rule:nonzero;stroke:none"
         id="path44" />
      <path
         d="m 31.9805,659.102 v 34.679 H 42.457 l 6.2696,-23.66 6.2461,23.66 h 10.4961 v -34.679 h -6.5079 v 27.308 l -6.875,-27.308 h -6.7421 l -6.879,27.308 v -27.308 h -6.4843"
         style="fill:#2f2d2e;fill-opacity:1;fill-rule:nonzero;stroke:none"
         id="path46" />
      <path
         d="M 55.4922,39.0664 67.1172,171.93 h 96.0588 l -1.391,-15.68 H 83.2969 L 79.7383,115.563 H 153.266 L 151.898,99.9688 H 78.3945 L 74.4258,54.7461 H 156.02 L 154.629,39.0664 H 55.4922"
         style="fill:#2f2d2e;fill-opacity:1;fill-rule:nonzero;stroke:none"
         id="path48" />
      <path
         d="m 171.688,39.0664 8.414,96.2346 h 14.64 l -1.172,-13.664 c 8,10.582 18.672,15.875 32.012,15.875 5.813,0 11.039,-1.063 15.723,-3.125 4.707,-2.102 8.07,-4.836 10.195,-8.219 2.145,-3.383 3.469,-7.418 4.055,-12.059 0.324,-3.015 0.175,-8.304 -0.477,-15.8746 l -5.207,-59.168 h -16.332 l 5.141,58.5586 c 0.566,6.617 0.371,11.605 -0.606,14.922 -0.953,3.277 -2.992,5.898 -6.051,7.851 -3.058,1.973 -6.746,2.973 -11.105,2.973 -6.984,0 -13.145,-2.234 -18.609,-6.637 -5.422,-4.402 -8.653,-12.754 -9.715,-25.1168 l -4.621,-52.5508 h -16.285"
         style="fill:#2f2d2e;fill-opacity:1;fill-rule:nonzero;stroke:none"
         id="path50" />
      <path
         d="m 284.574,88.9023 c -1.105,-12.621 0.586,-21.8398 5.145,-27.6093 4.488,-5.8321 10.539,-8.6953 18.062,-8.6953 7.504,0 14.035,2.8632 19.61,8.6328 5.574,5.7656 8.914,14.8125 9.996,27.1523 1,11.7772 -0.824,20.6682 -5.508,26.6332 -4.707,5.964 -10.758,8.98 -18.109,8.98 -7.247,0 -13.665,-2.949 -19.282,-8.851 -5.597,-5.875 -8.89,-14.637 -9.914,-26.2427 M 266.055,31.082 281.691,28.7383 c 0.239,-4.8985 1.778,-8.457 4.579,-10.7149 3.793,-2.9921 9.195,-4.5078 16.179,-4.5078 7.59,0 13.531,1.5157 17.914,4.5078 4.379,3.0391 7.504,7.2657 9.434,12.6914 1.148,3.3399 2.148,10.3008 3.016,20.9493 -7.875,-8.3946 -17.09,-12.6016 -27.762,-12.6016 -13.231,0 -23.035,4.7734 -29.453,14.3359 -6.399,9.5235 -9.043,20.9961 -7.875,34.3321 0.804,9.1992 3.211,17.6755 7.203,25.4415 4.012,7.766 9.367,13.75 16.047,18.004 6.679,4.207 14.293,6.332 22.797,6.332 11.363,0 20.32,-4.621 26.871,-13.793 l 1.019,11.601 h 15.074 L 349.445,52.1172 C 348.145,37.1523 345.652,26.5039 342.07,20.2578 338.473,14.0117 333.223,9.06641 326.281,5.42578 319.363,1.82422 311.059,0.00390625 301.363,0.00390625 c -11.472,0 -20.539,2.60156375 -27.133,7.76172375 -6.613,5.16407 -9.347,12.92577 -8.175,23.31637"
         style="fill:#2f2d2e;fill-opacity:1;fill-rule:nonzero;stroke:none"
         id="path52" />
      <path
         d="m 433.449,87.3906 c -6.136,-2.4531 -15.203,-4.4922 -27.176,-6.1836 -6.789,-0.9765 -11.644,-2.039 -14.507,-3.2539 -2.887,-1.2148 -5.207,-2.9687 -6.899,-5.3125 -1.711,-2.3398 -2.711,-4.9023 -2.969,-7.7422 -0.39,-4.3593 0.973,-7.9804 4.012,-10.8867 3.016,-2.8867 7.719,-4.3398 14.055,-4.3398 6.289,0 12.015,1.3672 17.133,4.1211 5.117,2.7539 9.066,6.5273 11.777,11.3008 2.082,3.6875 3.426,9.1093 4.074,16.3085 z m -1.82,-36.4375 c -6.508,-5.1406 -12.645,-8.7617 -18.391,-10.8867 -5.793,-2.1055 -11.886,-3.168 -18.285,-3.168 -10.586,0 -18.457,2.5821 -23.707,7.7422 -5.183,5.1641 -7.48,11.7774 -6.785,19.8008 0.434,4.7305 1.844,9.0234 4.359,12.9258 2.473,3.9062 5.551,7.0273 9.239,9.3711 3.707,2.3633 7.761,4.164 12.23,5.3594 3.254,0.8242 8.156,1.6679 14.664,2.4492 13.336,1.5625 23.227,3.4258 29.625,5.6171 0.238,2.234 0.41,3.645 0.453,4.25 0.586,6.637 -0.539,11.344 -3.402,14.031 -3.816,3.731 -9.867,5.532 -18.09,5.532 -7.676,0 -13.426,-1.321 -17.351,-4.012 -3.903,-2.688 -7.004,-7.461 -9.344,-14.293 l -15.746,2.191 c 2.039,6.809 4.922,12.364 8.566,16.528 3.688,4.207 8.805,7.461 15.289,9.714 6.465,2.258 13.836,3.407 22.145,3.407 8.218,0 14.793,-0.996 19.738,-2.907 4.984,-1.953 8.543,-4.359 10.711,-7.308 2.172,-2.93 3.516,-6.617 4.121,-11.106 0.262,-2.777 0.133,-7.785 -0.52,-15.031 l -1.91,-21.7537 c -1.324,-15.1797 -1.8,-24.7891 -1.453,-28.7579 0.328,-4.0351 1.391,-7.8945 3.125,-11.582 h -17.07 c -1.367,3.3633 -2.149,7.332 -2.211,11.8867"
         style="fill:#2f2d2e;fill-opacity:1;fill-rule:nonzero;stroke:none"
         id="path54" />
      <path
         d="m 480.703,88.9023 c -1.105,-12.621 0.586,-21.8398 5.117,-27.6093 4.512,-5.8321 10.543,-8.6953 18.09,-8.6953 7.481,0 14.031,2.8632 19.606,8.6328 5.55,5.7656 8.89,14.8125 9.976,27.1523 1.043,11.7772 -0.781,20.6682 -5.488,26.6332 -4.703,5.964 -10.758,8.98 -18.109,8.98 -7.243,0 -13.665,-2.949 -19.301,-8.851 -5.574,-5.875 -8.871,-14.637 -9.891,-26.2427 M 462.16,31.082 477.816,28.7383 c 0.219,-4.8985 1.758,-8.457 4.555,-10.7149 3.82,-2.9921 9.219,-4.5078 16.203,-4.5078 7.59,0 13.535,1.5157 17.895,4.5078 4.402,3.0391 7.504,7.2657 9.453,12.6914 1.152,3.3399 2.129,10.3008 3.016,20.9493 -7.872,-8.3946 -17.114,-12.6016 -27.762,-12.6016 -13.231,0 -23.055,4.7734 -29.453,14.3359 -6.418,9.5235 -9.067,20.9961 -7.895,34.3321 0.805,9.1992 3.211,17.6755 7.203,25.4415 4.012,7.766 9.367,13.75 16.047,18.004 6.703,4.207 14.293,6.332 22.817,6.332 11.343,0 20.324,-4.621 26.875,-13.793 l 1.015,11.601 H 552.84 L 545.574,52.1172 C 544.273,37.1523 541.777,26.5039 538.199,20.2578 534.598,14.0117 529.328,9.06641 522.41,5.42578 515.469,1.82422 507.184,0.00390625 497.469,0.00390625 c -11.473,0 -20.52,2.60156375 -27.114,7.76172375 -6.632,5.16407 -9.367,12.92577 -8.195,23.31637"
         style="fill:#2f2d2e;fill-opacity:1;fill-rule:nonzero;stroke:none"
         id="path56" />
      <path
         d="m 563.984,39.0664 8.414,96.2346 h 16.332 l -8.414,-96.2346 z m 9.977,114.1056 1.648,18.758 h 16.332 l -1.648,-18.758 h -16.332"
         style="fill:#2f2d2e;fill-opacity:1;fill-rule:nonzero;stroke:none"
         id="path58" />
      <path
         d="m 599.969,39.0664 8.433,96.2346 h 14.664 l -1.191,-13.664 c 8,10.582 18.672,15.875 32.012,15.875 5.812,0 11.039,-1.063 15.722,-3.125 4.707,-2.102 8.067,-4.836 10.196,-8.219 2.144,-3.383 3.468,-7.418 4.054,-12.059 0.325,-3.015 0.153,-8.304 -0.5,-15.8746 l -5.16,-59.168 h -16.332 l 5.117,58.5586 c 0.567,6.617 0.391,11.605 -0.586,14.922 -0.996,3.277 -3.011,5.898 -6.07,7.851 -3.058,1.973 -6.769,2.973 -11.105,2.973 -6.985,0 -13.145,-2.234 -18.61,-6.637 -5.422,-4.402 -8.652,-12.754 -9.738,-25.1168 l -4.598,-52.5508 h -16.308"
         style="fill:#2f2d2e;fill-opacity:1;fill-rule:nonzero;stroke:none"
         id="path60" />
      <path
         d="m 712.879,88.9023 c -1.106,-12.621 0.586,-21.8398 5.117,-27.6093 4.512,-5.8321 10.543,-8.6953 18.09,-8.6953 7.504,0 14.031,2.8632 19.605,8.6328 5.575,5.7656 8.914,14.8125 10,27.1523 0.997,11.7772 -0.824,20.6682 -5.507,26.6332 -4.707,5.964 -10.758,8.98 -18.11,8.98 -7.246,0 -13.664,-2.949 -19.281,-8.851 -5.598,-5.875 -8.895,-14.637 -9.914,-26.2427 m -18.52,-57.8203 15.637,-2.3437 c 0.238,-4.8985 1.777,-8.457 4.574,-10.7149 3.797,-2.9921 9.196,-4.5078 16.18,-4.5078 7.594,0 13.535,1.5157 17.895,4.5078 4.402,3.0391 7.527,7.2657 9.457,12.6914 1.148,3.3399 2.144,10.3008 3.011,20.9493 -7.871,-8.3946 -17.109,-12.6016 -27.758,-12.6016 -13.23,0 -23.054,4.7734 -29.453,14.3359 -6.422,9.5235 -9.047,20.9961 -7.894,34.3321 0.801,9.1992 3.23,17.6755 7.219,25.4415 4.015,7.766 9.347,13.75 16.05,18.004 6.68,4.207 14.293,6.332 22.797,6.332 11.344,0 20.321,-4.621 26.871,-13.793 l 1.02,11.601 h 15.07 L 777.75,52.1172 C 776.449,37.1523 773.953,26.5039 770.375,20.2578 766.777,14.0117 761.527,9.06641 754.586,5.42578 747.645,1.82422 739.359,0.00390625 729.668,0.00390625 c -11.473,0 -20.539,2.60156375 -27.156,7.76172375 -6.594,5.16407 -9.324,12.92577 -8.153,23.31637"
         style="fill:#2f2d2e;fill-opacity:1;fill-rule:nonzero;stroke:none"
         id="path62" />
      <path
         d="m 867.984,93.6367 h 45.09 l -10.672,36.7853 c -3.254,11.168 -5.593,20.363 -6.984,27.566 -2.473,-8.547 -5.574,-16.984 -9.41,-25.398 z M 824.91,39.0703 887.566,171.934 H 906.48 L 949.25,39.0703 H 929.211 L 917.238,79.3242 H 861.672 L 843.582,39.0703 H 824.91"
         style="fill:#2f2d2e;fill-opacity:1;fill-rule:nonzero;stroke:none"
         id="path64" />
      <path
         d="m 974.965,86.6484 c -1.086,-12.3867 0.629,-21.539 5.117,-27.4804 4.488,-5.8985 10.324,-8.8711 17.457,-8.8711 7.221,0 13.711,3.0586 19.431,9.2187 5.69,6.1172 9.11,15.6172 10.24,28.5 1.09,12.2734 -0.65,21.4254 -5.16,27.5434 -4.51,6.117 -10.28,9.171 -17.27,9.171 -6.956,0 -13.397,-3.25 -19.342,-9.738 -5.899,-6.504 -9.391,-15.9607 -10.473,-28.3436 M 952.84,2.19141 964.488,135.316 h 14.813 l -1.086,-12.515 c 3.926,4.902 8.199,8.59 12.84,11.019 4.621,2.45 10.085,3.688 16.355,3.688 8.24,0 15.29,-2.125 21.21,-6.332 5.92,-4.254 10.13,-10.215 12.67,-17.918 2.53,-7.699 3.4,-16.1564 2.6,-25.3322 -0.87,-9.8438 -3.41,-18.7149 -7.66,-26.6094 -4.2,-7.8945 -9.89,-13.9258 -16.98,-18.1328 -7.11,-4.1875 -14.38,-6.2891 -21.816,-6.2891 -5.446,0 -10.215,1.1485 -14.317,3.4493 -4.14,2.2773 -7.418,5.1835 -9.89,8.6953 L 969.129,2.19141 H 952.84"
         style="fill:#2f2d2e;fill-opacity:1;fill-rule:nonzero;stroke:none"
         id="path66" />
      <path
         d="m 1073.03,86.6484 c -1.09,-12.3867 0.6,-21.539 5.12,-27.4804 4.49,-5.8985 10.32,-8.8711 17.43,-8.8711 7.25,0 13.73,3.0586 19.44,9.2187 5.7,6.1172 9.13,15.6172 10.25,28.5 1.09,12.2734 -0.67,21.4254 -5.16,27.5434 -4.51,6.117 -10.28,9.171 -17.26,9.171 -6.96,0 -13.4,-3.25 -19.35,-9.738 -5.9,-6.504 -9.39,-15.9607 -10.47,-28.3436 M 1050.88,2.19141 1062.53,135.316 h 14.84 l -1.09,-12.515 c 3.93,4.902 8.2,8.59 12.84,11.019 4.62,2.45 10.06,3.688 16.35,3.688 8.25,0 15.27,-2.125 21.19,-6.332 5.95,-4.254 10.15,-10.215 12.67,-17.918 2.56,-7.699 3.43,-16.1564 2.62,-25.3322 -0.86,-9.8438 -3.4,-18.7149 -7.65,-26.6094 -4.21,-7.8945 -9.89,-13.9258 -17.01,-18.1328 -7.09,-4.1875 -14.38,-6.2891 -21.79,-6.2891 -5.45,0 -10.22,1.1485 -14.34,3.4493 -4.12,2.2773 -7.4,5.1835 -9.87,8.6953 l -4.12,-46.84769 h -16.29"
         style="fill:#2f2d2e;fill-opacity:1;fill-rule:nonzero;stroke:none"
         id="path68" />
      <path
         d="m 1151.8,39.0664 11.62,132.8636 h 16.31 L 1168.11,39.0664 h -16.31"
         style="fill:#2f2d2e;fill-opacity:1;fill-rule:nonzero;stroke:none"
         id="path70" />
      <path
         d="m 1188.29,39.0664 8.44,96.2346 h 16.33 l -8.42,-96.2346 z m 9.98,114.1056 1.64,18.758 h 16.36 l -1.65,-18.758 h -16.35"
         style="fill:#2f2d2e;fill-opacity:1;fill-rule:nonzero;stroke:none"
         id="path72" />
      <path
         d="m 1290.19,74.332 15.83,-2.1054 c -2.71,-11.0391 -7.94,-19.6914 -15.72,-25.961 -7.77,-6.2461 -16.92,-9.3711 -27.44,-9.3711 -13.14,0 -23.38,4.3164 -30.6,12.9063 -7.27,8.6094 -10.22,20.9531 -8.81,37.0234 0.91,10.4102 3.45,19.4958 7.55,27.2808 4.16,7.809 9.91,13.665 17.29,17.571 7.37,3.883 15.22,5.832 23.46,5.832 10.48,0 18.83,-2.668 24.97,-7.957 6.18,-5.293 9.8,-12.778 10.84,-22.516 l -16.09,-2.449 c -0.94,6.465 -3.19,11.32 -6.75,14.598 -3.53,3.254 -8.04,4.902 -13.47,4.902 -8.24,0 -15.18,-2.953 -20.84,-8.852 -5.66,-5.879 -9.02,-15.179 -10.15,-27.9332 -1.13,-12.9258 0.54,-22.3399 5.01,-28.2188 4.43,-5.8554 10.63,-8.7812 18.61,-8.7812 6.42,0 11.91,1.9726 16.55,5.9219 4.66,3.9218 7.89,9.9531 9.76,18.1093"
         style="fill:#2f2d2e;fill-opacity:1;fill-rule:nonzero;stroke:none"
         id="path74" />
      <path
         d="m 1377.6,87.3906 c -6.16,-2.4531 -15.21,-4.4922 -27.18,-6.1836 -6.79,-0.9765 -11.67,-2.039 -14.53,-3.2539 -2.89,-1.2148 -5.18,-2.9687 -6.9,-5.3125 -1.69,-2.3398 -2.71,-4.9023 -2.97,-7.7422 -0.39,-4.3593 1,-7.9804 4.01,-10.8867 3.02,-2.8867 7.72,-4.3398 14.08,-4.3398 6.27,0 11.99,1.3672 17.11,4.1211 5.14,2.7539 9.09,6.5273 11.8,11.3008 2.08,3.6875 3.41,9.1093 4.06,16.3085 z m -1.83,-36.4375 c -6.52,-5.1406 -12.66,-8.7617 -18.41,-10.8867 -5.77,-2.1055 -11.86,-3.168 -18.26,-3.168 -10.61,0 -18.48,2.5821 -23.71,7.7422 -5.2,5.1641 -7.48,11.7774 -6.78,19.8008 0.41,4.7305 1.84,9.0234 4.35,12.9258 2.48,3.9062 5.56,7.0273 9.22,9.3711 3.71,2.3633 7.77,4.164 12.23,5.3594 3.26,0.8242 8.16,1.6679 14.71,2.4492 13.32,1.5625 23.18,3.4258 29.6,5.6171 0.24,2.234 0.39,3.645 0.46,4.25 0.59,6.637 -0.54,11.344 -3.43,14.031 -3.81,3.731 -9.87,5.532 -18.06,5.532 -7.68,0 -13.45,-1.321 -17.38,-4.012 -3.86,-2.688 -6.98,-7.461 -9.34,-14.293 l -15.75,2.191 c 2.06,6.809 4.92,12.364 8.59,16.528 3.69,4.207 8.8,7.461 15.27,9.714 6.46,2.258 13.83,3.407 22.14,3.407 8.22,0 14.79,-0.996 19.76,-2.907 4.99,-1.953 8.54,-4.359 10.71,-7.308 2.15,-2.93 3.52,-6.617 4.1,-11.106 0.31,-2.777 0.13,-7.785 -0.52,-15.031 l -1.88,-21.7537 c -1.33,-15.1797 -1.83,-24.7891 -1.48,-28.7579 0.35,-4.0351 1.41,-7.8945 3.12,-11.582 h -17.04 c -1.39,3.3633 -2.15,7.332 -2.22,11.8867"
         style="fill:#2f2d2e;fill-opacity:1;fill-rule:nonzero;stroke:none"
         id="path76" />
      <path
         d="m 1446.88,53.6719 1.08,-14.4258 c -4.66,-0.9531 -8.83,-1.4531 -12.43,-1.4531 -5.94,0 -10.45,0.9336 -13.55,2.8203 -3.1,1.8672 -5.18,4.3359 -6.25,7.3984 -1.04,3.0117 -1.15,9.4531 -0.3,19.2344 l 4.84,55.3709 h -11.98 l 1.11,12.688 h 11.97 l 2.11,23.859 17.09,9.758 -2.95,-33.617 h 16.39 l -1.1,-12.688 h -16.4 l -4.92,-56.2576 c -0.41,-4.6875 -0.39,-7.6563 0.04,-8.9805 0.46,-1.3242 1.3,-2.3867 2.54,-3.1875 1.23,-0.7578 3.06,-1.1719 5.46,-1.1719 1.83,0 4.23,0.2149 7.25,0.6524"
         style="fill:#2f2d2e;fill-opacity:1;fill-rule:nonzero;stroke:none"
         id="path78" />
      <path
         d="m 1456.45,39.0664 8.42,96.2346 h 16.33 l -8.42,-96.2346 z m 9.98,114.1056 1.65,18.758 h 16.33 l -1.65,-18.758 h -16.33"
         style="fill:#2f2d2e;fill-opacity:1;fill-rule:nonzero;stroke:none"
         id="path80" />
      <path
         d="m 1507.33,87.2109 c -1.09,-12.3437 0.8,-21.582 5.66,-27.6992 4.83,-6.1562 11.34,-9.2148 19.47,-9.2148 8.11,0 15.12,3.1015 21.04,9.2578 5.9,6.1601 9.41,15.5508 10.5,28.1758 1.06,11.9062 -0.85,20.9495 -5.71,27.0665 -4.88,6.137 -11.34,9.195 -19.39,9.195 -8.13,0 -15.16,-3.058 -21.1,-9.172 -5.9,-6.074 -9.39,-15.2927 -10.47,-27.6091 m -16.77,0 c 1.56,17.8051 7.66,31.0351 18.35,39.6021 8.87,7.113 19.28,10.691 31.19,10.691 13.23,0 23.7,-4.336 31.32,-13.012 7.65,-8.676 10.77,-20.648 9.45,-35.9373 -1.08,-12.4063 -3.79,-22.1445 -8.13,-29.2149 -4.36,-7.1132 -10.24,-12.621 -17.68,-16.5507 -7.46,-3.9219 -15.35,-5.875 -23.77,-5.875 -13.47,0 -23.96,4.2929 -31.53,12.9492 -7.55,8.6289 -10.63,21.0781 -9.2,37.3476"
         style="fill:#2f2d2e;fill-opacity:1;fill-rule:nonzero;stroke:none"
         id="path82" />
      <path
         d="m 1590.5,39.0664 8.44,96.2346 h 14.66 l -1.2,-13.664 c 7.99,10.582 18.68,15.875 31.99,15.875 5.84,0 11.07,-1.063 15.73,-3.125 4.7,-2.102 8.09,-4.836 10.21,-8.219 2.13,-3.383 3.47,-7.418 4.04,-12.059 0.32,-3.015 0.17,-8.304 -0.48,-15.8746 l -5.16,-59.168 h -16.35 l 5.11,58.5586 c 0.59,6.617 0.42,11.605 -0.56,14.922 -1,3.277 -3.04,5.898 -6.07,7.851 -3.08,1.973 -6.77,2.973 -11.13,2.973 -6.96,0 -13.12,-2.234 -18.59,-6.637 -5.42,-4.402 -8.65,-12.754 -9.73,-25.1168 l -4.6,-52.5508 h -16.31"
         style="fill:#2f2d2e;fill-opacity:1;fill-rule:nonzero;stroke:none"
         id="path84" />
      <path
         d="m 1684.54,67.8086 16.35,2.5352 c 0.35,-6.461 2.43,-11.4063 6.27,-14.879 3.82,-3.4257 9.48,-5.1601 16.9,-5.1601 7.5,0 13.2,1.5391 17.09,4.5742 3.88,3.0586 6.03,6.6602 6.37,10.7149 0.33,3.7304 -1.04,6.6171 -4.05,8.7421 -2.11,1.4532 -7.53,3.2735 -16.2,5.5079 -11.67,3.0156 -19.76,5.6406 -24.19,7.8515 -4.42,2.211 -7.67,5.2695 -9.71,9.1524 -2.02,3.9023 -2.89,8.1993 -2.45,12.9063 0.39,4.312 1.71,8.262 4.01,11.906 2.25,3.688 5.23,6.723 8.8,9.129 2.72,1.867 6.32,3.473 10.78,4.774 4.51,1.3 9.29,1.949 14.27,1.949 7.57,0 14.08,-1.106 19.61,-3.274 5.53,-2.168 9.48,-5.117 11.89,-8.828 2.4,-3.75 3.81,-8.695 4.29,-14.898 l -16.14,-2.211 c -0.28,4.965 -2.06,8.824 -5.29,11.601 -3.21,2.778 -8,4.188 -14.36,4.188 -7.48,0 -12.94,-1.238 -16.35,-3.731 -3.43,-2.453 -5.29,-5.379 -5.57,-8.675 -0.18,-2.149 0.32,-4.012 1.52,-5.727 1.14,-1.777 3.1,-3.187 5.85,-4.359 1.58,-0.61 6.25,-1.9964 14.06,-4.1644 11.25,-3.082 19.08,-5.5938 23.46,-7.5703 4.41,-1.9531 7.75,-4.836 10.04,-8.5664 2.24,-3.75 3.15,-8.3946 2.67,-13.9453 -0.5,-5.4453 -2.56,-10.5625 -6.14,-15.3789 -3.6,-4.8125 -8.48,-8.5 -14.68,-11.1485 -6.2,-2.6211 -13.1,-3.9219 -20.67,-3.9219 -12.51,0 -21.8,2.6016 -27.91,7.8047 -6.12,5.1836 -9.61,12.8828 -10.52,23.1016"
         style="fill:#2f2d2e;fill-opacity:1;fill-rule:nonzero;stroke:none"
         id="path86" />
      <path
         d="m 1898.97,39.0664 11.6,132.8636 h 96.08 l -1.39,-15.68 h -78.49 l -3.56,-40.687 h 73.53 l -1.39,-15.5942 h -73.48 l -3.97,-45.2227 h 81.59 l -1.38,-15.6797 h -99.14"
         style="fill:#2f2d2e;fill-opacity:1;fill-rule:nonzero;stroke:none"
         id="path88" />
      <path
         d="m 2015.16,39.0664 8.42,96.2346 h 14.66 l -1.2,-13.664 c 8.01,10.582 18.68,15.875 31.99,15.875 5.84,0 11.07,-1.063 15.75,-3.125 4.71,-2.102 8.07,-4.836 10.19,-8.219 2.15,-3.383 3.47,-7.418 4.06,-12.059 0.33,-3.015 0.17,-8.304 -0.48,-15.8746 l -5.2,-59.168 h -16.31 l 5.12,58.5586 c 0.56,6.617 0.39,11.605 -0.61,14.922 -0.96,3.277 -2.99,5.898 -6.05,7.851 -3.06,1.973 -6.75,2.973 -11.11,2.973 -6.98,0 -13.14,-2.234 -18.61,-6.637 -5.42,-4.402 -8.65,-12.754 -9.71,-25.1168 l -4.62,-52.5508 h -16.29"
         style="fill:#2f2d2e;fill-opacity:1;fill-rule:nonzero;stroke:none"
         id="path90" />
      <path
         d="m 2128.05,88.9023 c -1.1,-12.621 0.59,-21.8398 5.14,-27.6093 4.49,-5.8321 10.54,-8.6953 18.07,-8.6953 7.5,0 14.03,2.8632 19.6,8.6328 5.58,5.7656 8.92,14.8125 10,27.1523 1,11.7772 -0.82,20.6682 -5.51,26.6332 -4.7,5.964 -10.75,8.98 -18.11,8.98 -7.24,0 -13.66,-2.949 -19.28,-8.851 -5.59,-5.875 -8.89,-14.637 -9.91,-26.2427 m -18.52,-57.8203 15.64,-2.3437 c 0.24,-4.8985 1.78,-8.457 4.57,-10.7149 3.8,-2.9921 9.2,-4.5078 16.18,-4.5078 7.59,0 13.54,1.5157 17.9,4.5078 4.4,3.0391 7.52,7.2657 9.45,12.6914 1.15,3.3399 2.15,10.3008 3.02,20.9493 -7.88,-8.3946 -17.12,-12.6016 -27.76,-12.6016 -13.23,0 -23.06,4.7734 -29.46,14.3359 -6.4,9.5235 -9.06,20.9961 -7.87,34.3321 0.8,9.1992 3.21,17.6755 7.2,25.4415 4.01,7.766 9.37,13.75 16.05,18.004 6.68,4.207 14.29,6.332 22.79,6.332 11.35,0 20.33,-4.621 26.88,-13.793 l 1.02,11.601 h 15.07 l -7.29,-83.1988 c -1.3,-14.9649 -3.79,-25.6133 -7.37,-31.8594 -3.6,-6.2461 -8.85,-11.19139 -15.79,-14.83202 -6.94,-3.60156 -15.23,-5.42187375 -24.92,-5.42187375 -11.47,0 -20.54,2.60156375 -27.13,7.76172375 -6.62,5.16407 -9.35,12.92577 -8.18,23.31637"
         style="fill:#2f2d2e;fill-opacity:1;fill-rule:nonzero;stroke:none"
         id="path92" />
      <path
         d="m 2276.93,87.3906 c -6.14,-2.4531 -15.21,-4.4922 -27.18,-6.1836 -6.79,-0.9765 -11.64,-2.039 -14.51,-3.2539 -2.88,-1.2148 -5.2,-2.9687 -6.89,-5.3125 -1.72,-2.3398 -2.72,-4.9023 -2.98,-7.7422 -0.39,-4.3593 0.98,-7.9804 4.02,-10.8867 3.01,-2.8867 7.72,-4.3398 14.05,-4.3398 6.29,0 11.99,1.3672 17.13,4.1211 5.12,2.7539 9.07,6.5273 11.78,11.3008 2.08,3.6875 3.43,9.1093 4.08,16.3085 z m -1.82,-36.4375 c -6.51,-5.1406 -12.65,-8.7617 -18.4,-10.8867 -5.79,-2.1055 -11.86,-3.168 -18.28,-3.168 -10.58,0 -18.46,2.5821 -23.71,7.7422 -5.2,5.1641 -7.48,11.7774 -6.78,19.8008 0.43,4.7305 1.84,9.0234 4.38,12.9258 2.45,3.9062 5.53,7.0273 9.22,9.3711 3.7,2.3633 7.76,4.164 12.23,5.3594 3.23,0.8242 8.15,1.6679 14.66,2.4492 13.34,1.5625 23.23,3.4258 29.63,5.6171 0.23,2.234 0.39,3.645 0.45,4.25 0.59,6.637 -0.54,11.344 -3.4,14.031 -3.82,3.731 -9.87,5.532 -18.09,5.532 -7.66,0 -13.43,-1.321 -17.35,-4.012 -3.89,-2.688 -7.01,-7.461 -9.37,-14.293 l -15.73,2.191 c 2.04,6.809 4.93,12.364 8.59,16.528 3.67,4.207 8.79,7.461 15.27,9.714 6.46,2.258 13.84,3.407 22.12,3.407 8.24,0 14.82,-0.996 19.76,-2.907 4.99,-1.953 8.55,-4.359 10.71,-7.308 2.17,-2.93 3.52,-6.617 4.13,-11.106 0.28,-2.777 0.13,-7.785 -0.52,-15.031 l -1.89,-21.7537 c -1.35,-15.1797 -1.82,-24.7891 -1.5,-28.7579 0.35,-4.0351 1.41,-7.8945 3.12,-11.582 h -17.04 c -1.39,3.3633 -2.15,7.332 -2.21,11.8867"
         style="fill:#2f2d2e;fill-opacity:1;fill-rule:nonzero;stroke:none"
         id="path94" />
      <path
         d="m 2324.18,88.9023 c -1.11,-12.621 0.59,-21.8398 5.12,-27.6093 4.51,-5.8321 10.54,-8.6953 18.09,-8.6953 7.48,0 14.01,2.8632 19.6,8.6328 5.56,5.7656 8.9,14.8125 9.98,27.1523 1.02,11.7772 -0.8,20.6682 -5.49,26.6332 -4.7,5.964 -10.75,8.98 -18.13,8.98 -7.22,0 -13.64,-2.949 -19.28,-8.851 -5.57,-5.875 -8.87,-14.637 -9.89,-26.2427 m -18.54,-57.8203 15.66,-2.3437 c 0.21,-4.8985 1.75,-8.457 4.55,-10.7149 3.82,-2.9921 9.22,-4.5078 16.2,-4.5078 7.59,0 13.54,1.5157 17.89,4.5078 4.41,3.0391 7.51,7.2657 9.46,12.6914 1.15,3.3399 2.13,10.3008 3.02,20.9493 -7.9,-8.3946 -17.12,-12.6016 -27.77,-12.6016 -13.23,0 -23.05,4.7734 -29.47,14.3359 -6.4,9.5235 -9.04,20.9961 -7.87,34.3321 0.8,9.1992 3.21,17.6755 7.2,25.4415 4.01,7.766 9.37,13.75 16.05,18.004 6.7,4.207 14.29,6.332 22.79,6.332 11.37,0 20.32,-4.621 26.89,-13.793 l 1.02,11.601 h 15.06 l -7.27,-83.1988 c -1.3,-14.9649 -3.8,-25.6133 -7.37,-31.8594 -3.63,-6.2461 -8.87,-11.19139 -15.79,-14.83202 -6.94,-3.60156 -15.25,-5.42187375 -24.94,-5.42187375 -11.48,0 -20.52,2.60156375 -27.14,7.76172375 -6.61,5.16407 -9.34,12.92577 -8.17,23.31637"
         style="fill:#2f2d2e;fill-opacity:1;fill-rule:nonzero;stroke:none"
         id="path96" />
      <path
         d="m 2407.46,39.0664 8.41,96.2346 h 16.34 l -8.42,-96.2346 z m 9.98,114.1056 1.62,18.758 h 16.33 l -1.62,-18.758 h -16.33"
         style="fill:#2f2d2e;fill-opacity:1;fill-rule:nonzero;stroke:none"
         id="path98" />
      <path
         d="m 2443.44,39.0664 8.44,96.2346 h 14.64 l -1.17,-13.664 c 8,10.582 18.67,15.875 31.99,15.875 5.83,0 11.06,-1.063 15.72,-3.125 4.71,-2.102 8.09,-4.836 10.22,-8.219 2.13,-3.383 3.47,-7.418 4.03,-12.059 0.33,-3.015 0.18,-8.304 -0.47,-15.8746 l -5.19,-59.168 h -16.31 l 5.1,58.5586 c 0.59,6.617 0.39,11.605 -0.56,14.922 -1,3.277 -3.02,5.898 -6.08,7.851 -3.05,1.973 -6.76,2.973 -11.1,2.973 -6.98,0 -13.14,-2.234 -18.61,-6.637 -5.42,-4.402 -8.65,-12.754 -9.74,-25.1168 l -4.6,-52.5508 h -16.31"
         style="fill:#2f2d2e;fill-opacity:1;fill-rule:nonzero;stroke:none"
         id="path100" />
      <path
         d="m 2556.36,88.9023 c -1.11,-12.621 0.58,-21.8398 5.11,-27.6093 4.51,-5.8321 10.54,-8.6953 18.09,-8.6953 7.48,0 14.03,2.8632 19.61,8.6328 5.59,5.7656 8.91,14.8125 9.97,27.1523 1.05,11.7772 -0.78,20.6682 -5.48,26.6332 -4.71,5.964 -10.76,8.98 -18.11,8.98 -7.25,0 -13.67,-2.949 -19.31,-8.851 -5.57,-5.875 -8.87,-14.637 -9.88,-26.2427 m -18.55,-57.8203 15.66,-2.3437 c 0.24,-4.8985 1.76,-8.457 4.58,-10.7149 3.79,-2.9921 9.19,-4.5078 16.18,-4.5078 7.59,0 13.53,1.5157 17.91,4.5078 4.38,3.0391 7.51,7.2657 9.44,12.6914 1.14,3.3399 2.14,10.3008 3.01,20.9493 -7.87,-8.3946 -17.11,-12.6016 -27.76,-12.6016 -13.23,0 -23.06,4.7734 -29.48,14.3359 -6.39,9.5235 -9.04,20.9961 -7.87,34.3321 0.8,9.1992 3.21,17.6755 7.22,25.4415 4.02,7.766 9.35,13.75 16.03,18.004 6.7,4.207 14.29,6.332 22.82,6.332 11.34,0 20.32,-4.621 26.87,-13.793 l 1.02,11.601 h 15.07 l -7.28,-83.1988 c -1.31,-14.9649 -3.8,-25.6133 -7.38,-31.8594 -3.6,-6.2461 -8.87,-11.19139 -15.79,-14.83202 -6.94,-3.60156 -15.22,-5.42187375 -24.9,-5.42187375 -11.49,0 -20.56,2.60156375 -27.15,7.76172375 -6.64,5.16407 -9.35,12.92577 -8.2,23.31637"
         style="fill:#2f2d2e;fill-opacity:1;fill-rule:nonzero;stroke:none"
         id="path102" />
      <path
         d="m 2717.56,113.281 h 37.8 c 8,0 14.38,0.848 19.04,2.516 4.71,1.672 8.38,4.316 11.04,7.98 2.67,3.645 4.19,7.59 4.58,11.907 0.54,6.269 -1.26,11.453 -5.49,15.507 -4.2,4.055 -11.23,6.051 -21.1,6.051 h -42.03 z m -24.05,-74.2185 11.6,132.8865 h 58.91 c 11.84,0 20.75,-1.215 26.69,-3.601 5.92,-2.387 10.48,-6.594 13.69,-12.621 3.12,-6.075 4.38,-12.754 3.75,-20.043 -0.82,-9.434 -4.55,-17.371 -11.25,-23.813 -6.66,-6.465 -16.47,-10.586 -29.35,-12.3397 4.49,-2.2344 7.81,-4.4258 10.02,-6.6368 4.73,-4.707 9.07,-10.6054 13.06,-17.6562 l 19.95,-36.1758 h -22.12 l -15.16,27.6523 c -4.43,7.961 -8.14,14.0782 -11.11,18.2852 -2.92,4.25 -5.64,7.2227 -8.11,8.8906 -2.51,1.6914 -5.05,2.8633 -7.72,3.5586 -1.99,0.4102 -5.2,0.6055 -9.76,0.6055 h -20.39 l -5.16,-58.9922 h -17.54"
         style="fill:#2f2d2e;fill-opacity:1;fill-rule:nonzero;stroke:none"
         id="path104" />
      <path
         d="m 2837.33,96.4531 h 53.75 c 0,8.0699 -1.54,14.1639 -4.56,18.1989 -4.64,6.27 -11.13,9.434 -19.39,9.434 -7.48,0 -14.01,-2.516 -19.54,-7.527 -5.55,-5.008 -8.96,-11.711 -10.26,-20.1059 M 2888.58,70.0586 2905.26,68 c -3.51,-9.8672 -9.11,-17.5234 -16.77,-22.9687 -7.67,-5.3985 -17.11,-8.1329 -28.26,-8.1329 -14.09,0 -24.87,4.336 -32.35,12.9922 -7.49,8.6524 -10.55,20.8203 -9.18,36.4805 1.41,16.2229 6.68,28.7769 15.79,37.7149 9.15,8.937 20.34,13.426 33.64,13.426 12.86,0 22.99,-4.403 30.36,-13.145 7.42,-8.762 10.41,-21.101 9.02,-36.9764 -0.08,-0.9765 -0.23,-2.4531 -0.47,-4.3593 h -71.77 c -0.32,-10.586 1.95,-18.6993 6.85,-24.293 4.88,-5.6172 11.33,-8.4375 19.37,-8.4375 5.97,0 11.22,1.5859 15.73,4.7305 4.51,3.121 8.3,8.1328 11.36,15.0273"
         style="fill:#2f2d2e;fill-opacity:1;fill-rule:nonzero;stroke:none"
         id="path106" />
      <path
         d="m 2914.07,67.8086 16.33,2.5352 c 0.35,-6.461 2.43,-11.4063 6.27,-14.879 3.81,-3.4257 9.45,-5.1601 16.89,-5.1601 7.51,0 13.21,1.5391 17.09,4.5742 3.88,3.0586 6.03,6.6602 6.38,10.7149 0.32,3.7304 -1.04,6.6171 -4.06,8.7421 -2.1,1.4532 -7.52,3.2735 -16.18,5.5079 -11.69,3.0156 -19.78,5.6406 -24.18,7.8515 -4.45,2.211 -7.7,5.2695 -9.74,9.1524 -2.04,3.9023 -2.86,8.1993 -2.45,12.9063 0.39,4.312 1.72,8.262 4.01,11.906 2.26,3.688 5.23,6.723 8.81,9.129 2.71,1.867 6.31,3.473 10.78,4.774 4.51,1.3 9.28,1.949 14.27,1.949 7.55,0 14.1,-1.106 19.61,-3.274 5.53,-2.168 9.5,-5.117 11.88,-8.828 2.41,-3.75 3.82,-8.695 4.32,-14.898 l -16.16,-2.211 c -0.28,4.965 -2.06,8.824 -5.29,11.601 -3.21,2.778 -8.01,4.188 -14.36,4.188 -7.48,0 -12.95,-1.238 -16.35,-3.731 -3.43,-2.453 -5.3,-5.379 -5.58,-8.675 -0.17,-2.149 0.33,-4.012 1.52,-5.727 1.15,-1.777 3.12,-3.187 5.86,-4.359 1.58,-0.61 6.24,-1.9964 14.05,-4.1644 11.26,-3.082 19.09,-5.5938 23.47,-7.5703 4.42,-1.9531 7.74,-4.836 10.04,-8.5664 2.23,-3.75 3.14,-8.3946 2.67,-13.9453 -0.5,-5.4453 -2.56,-10.5625 -6.14,-15.3789 -3.6,-4.8125 -8.48,-8.5 -14.68,-11.1485 -6.21,-2.6211 -13.1,-3.9219 -20.67,-3.9219 -12.52,0 -21.8,2.6016 -27.92,7.8047 -6.11,5.1836 -9.6,12.8828 -10.49,23.1016"
         style="fill:#2f2d2e;fill-opacity:1;fill-rule:nonzero;stroke:none"
         id="path108" />
      <path
         d="m 3068.79,39.0664 1.23,14.1406 c -8.48,-10.8867 -19.13,-16.3086 -32.01,-16.3086 -5.66,0 -10.89,1.086 -15.61,3.2539 -4.71,2.168 -8.14,4.9219 -10.22,8.1993 -2.12,3.3164 -3.47,7.3281 -3.99,12.1015 -0.37,3.2071 -0.28,8.2852 0.35,15.2461 l 5.2,59.6018 h 16.31 l -4.66,-53.3557 c -0.76,-8.5469 -0.91,-14.2695 -0.52,-17.2187 0.67,-4.3164 2.56,-7.6368 5.64,-10.1289 3.12,-2.4532 7.13,-3.6446 12.03,-3.6446 4.88,0 9.55,1.2344 14.08,3.7305 4.53,2.5156 7.87,5.9414 9.98,10.2383 2.19,4.3359 3.64,10.625 4.36,18.8242 l 4.51,51.5549 h 16.31 l -8.42,-96.2346 h -14.57"
         style="fill:#2f2d2e;fill-opacity:1;fill-rule:nonzero;stroke:none"
         id="path110" />
      <path
         d="M 3103.4,39.0664 3115,171.93 h 16.31 L 3119.68,39.0664 h -16.28"
         style="fill:#2f2d2e;fill-opacity:1;fill-rule:nonzero;stroke:none"
         id="path112" />
      <path
         d="m 3176.7,53.6719 1.11,-14.4258 c -4.67,-0.9531 -8.85,-1.4531 -12.43,-1.4531 -5.96,0 -10.45,0.9336 -13.56,2.8203 -3.1,1.8672 -5.18,4.3359 -6.24,7.3984 -1.06,3.0117 -1.17,9.4531 -0.31,19.2344 l 4.82,55.3709 h -11.95 l 1.08,12.688 h 12 l 2.08,23.859 17.09,9.758 -2.93,-33.617 h 16.4 l -1.13,-12.688 h -16.4 l -4.9,-56.2576 c -0.43,-4.6875 -0.41,-7.6563 0.05,-8.9805 0.45,-1.3242 1.3,-2.3867 2.53,-3.1875 1.24,-0.7578 3.06,-1.1719 5.47,-1.1719 1.82,0 4.21,0.2149 7.22,0.6524"
         style="fill:#2f2d2e;fill-opacity:1;fill-rule:nonzero;stroke:none"
         id="path114" />
      <path
         d="m 3182.21,67.8086 16.33,2.5352 c 0.32,-6.461 2.43,-11.4063 6.27,-14.879 3.84,-3.4257 9.47,-5.1601 16.89,-5.1601 7.51,0 13.21,1.5391 17.09,4.5742 3.89,3.0586 6.03,6.6602 6.38,10.7149 0.32,3.7304 -1.02,6.6171 -4.06,8.7421 -2.1,1.4532 -7.5,3.2735 -16.18,5.5079 -11.66,3.0156 -19.78,5.6406 -24.2,7.8515 -4.4,2.211 -7.66,5.2695 -9.72,9.1524 -2.04,3.9023 -2.86,8.1993 -2.45,12.9063 0.39,4.312 1.72,8.262 4.04,11.906 2.25,3.688 5.22,6.723 8.8,9.129 2.69,1.867 6.29,3.473 10.78,4.774 4.49,1.3 9.26,1.949 14.25,1.949 7.57,0 14.08,-1.106 19.61,-3.274 5.53,-2.168 9.5,-5.117 11.88,-8.828 2.41,-3.75 3.84,-8.695 4.3,-14.898 l -16.12,-2.211 c -0.3,4.965 -2.08,8.824 -5.29,11.601 -3.21,2.778 -8.02,4.188 -14.36,4.188 -7.5,0 -12.97,-1.238 -16.35,-3.731 -3.43,-2.453 -5.29,-5.379 -5.6,-8.675 -0.17,-2.149 0.35,-4.012 1.52,-5.727 1.15,-1.777 3.12,-3.187 5.86,-4.359 1.58,-0.61 6.27,-1.9964 14.05,-4.1644 11.28,-3.082 19.09,-5.5938 23.49,-7.5703 4.4,-1.9531 7.72,-4.836 10.02,-8.5664 2.26,-3.75 3.15,-8.3946 2.67,-13.9453 -0.48,-5.4453 -2.54,-10.5625 -6.12,-15.3789 -3.62,-4.8125 -8.5,-8.5 -14.7,-11.1485 -6.21,-2.6211 -13.1,-3.9219 -20.65,-3.9219 -12.54,0 -21.82,2.6016 -27.93,7.8047 -6.1,5.1836 -9.61,12.8828 -10.5,23.1016"
         style="fill:#2f2d2e;fill-opacity:1;fill-rule:nonzero;stroke:none"
         id="path116" />
      <path
         d="m 1823.84,92.6406 2.23,25.4844 h 25.49 l -2.21,-25.4844 h -25.51"
         style="fill:#2f2d2e;fill-opacity:1;fill-rule:nonzero;stroke:none"
         id="path118" />
    </g>
  </g>
</svg>
